<?xml version="1.0" encoding="UTF-8" standalone="no"?><!DOCTYPE svg PUBLIC "-//W3C//DTD SVG 1.1//EN" "http://www.w3.org/Graphics/SVG/1.1/DTD/svg11.dtd"><svg width="100%" height="100%" viewBox="0 0 3203 598" version="1.1" xmlns="http://www.w3.org/2000/svg" xmlns:xlink="http://www.w3.org/1999/xlink" xml:space="preserve" xmlns:serif="http://www.serif.com/" style="fill-rule:evenodd;clip-rule:evenodd;stroke-linejoin:round;stroke-miterlimit:2;"><g><g><path d="M214.085,178.84c15.072,-10.022 28.15,-17.343 39.233,-21.961c15.394,-6.416 30.224,-9.623 44.491,-9.623c19.9,-0 35.809,6.866 47.729,20.598c11.921,13.732 17.881,32.325 17.881,55.781c0,9.422 -0.938,18.844 -2.816,28.266c-1.877,9.422 -3.191,16.238 -3.942,20.448l-28.44,127.499l39.985,0l-13.798,67.058l-130.938,0l42.52,-196.361c2.065,-9.422 3.098,-16.038 3.098,-19.846c0,-8.22 -1.643,-14.785 -4.928,-19.697c-3.285,-4.911 -8.589,-7.367 -15.91,-7.367c-12.921,0 -29.137,7.094 -48.644,21.28l14.479,-66.075Zm-34.373,85.669l-28.89,135.339l39.703,0l-14.361,67.058l-162.757,0l14.36,-67.058l32.384,0l68.706,-318.447l-39.703,0l14.924,-67.659l130.938,0l-39.422,178.018l0.051,-0.037l-14.963,68.287l-0.013,0.011l-0.385,1.807l-0.588,2.678l0.016,0.003Z" style="fill-rule:nonzero;"/><path d="M1530.39,232.598l-0.077,-0.019c0.182,-0.133 0.362,-0.264 0.545,-0.397l0.003,-0.003l0.008,-0.006l0.04,-0.029l0.024,-0.017l0.008,-0.006l0.009,-0.006l0.027,-0.02l0.035,-0.025l0.01,-0.007l0.005,-0.003l0.018,-0.013l0.054,-0.04l0.002,-0.001l0.001,-0.001l0.01,-0.007c0.045,-0.032 0.09,-0.065 0.135,-0.098l0.014,-0.01l13.323,-69.767l-0.872,-0.243c9.367,-6.898 18.055,-12.155 26.064,-15.769c14.232,-6.425 30.691,-9.637 49.38,-9.637c17.145,-0 30.904,6.994 41.277,20.982c10.373,13.988 15.559,32.483 15.559,55.487c0,6.424 -0.514,13.107 -1.542,20.049c-1.03,6.943 -2.829,16.838 -5.401,29.686l-25.719,134.908l36.778,0l-13.117,69.32l-119.59,0l39.607,-206.404c1.371,-8.497 2.057,-14.402 2.057,-17.718c0,-8.496 -1.671,-15.283 -5.015,-20.361c-3.343,-5.077 -8.358,-7.615 -15.045,-7.615c-9.391,0 -21.955,5.681 -37.69,17.043l-0.054,0.039c-0.053,0.039 -0.106,0.077 -0.159,0.115l-0.003,0.002l-0.072,0.053l-0.015,0.01l-0.062,0.045l-0.017,0.012l-0.064,0.046l-0.011,0.009c-0.079,0.058 -0.158,0.115 -0.237,0.172l0.053,0.013l-0.284,0.231Zm-5.005,-75.832l-0.054,-0.015l-2.225,11.657l-2.451,12.518l0.073,-0.067l-13.576,71.082l0.228,0.063l-27.874,145.582l34.205,0l-13.116,69.32l-146.336,0l13.116,-69.32l29.575,0l35.749,-187.13l-40.635,-0l13.116,-70.252l123.447,-0l-3.242,16.562Zm-16.746,93.436l-0.018,0.094l-1.082,0.881c0.027,-0.024 0.053,-0.048 0.08,-0.071l0.037,-0.034l0.013,-0.011l0.01,-0.009c0.037,-0.033 0.075,-0.067 0.116,-0.102l0.006,-0.005l0.009,-0.009c0.277,-0.246 0.553,-0.49 0.829,-0.734Zm-0.983,0.87l0.023,-0.02l0.116,-0.102l0.015,-0.014c0.084,-0.075 0.168,-0.15 0.253,-0.225l-0.008,0.046l-0.516,0.42l0.117,-0.105Z" style="fill-rule:nonzero;"/><path d="M554.507,448.439c-21.459,12.31 -41.449,18.467 -59.965,18.467c-24.568,0 -45.085,-8.128 -61.554,-24.381c-16.47,-16.254 -24.705,-37.405 -24.705,-63.452c0,-39.373 13.057,-68.802 39.172,-88.287c26.114,-19.484 60.825,-29.227 104.136,-29.227c14.013,0 26.251,1.464 36.715,4.392c1.499,0.419 2.91,0.814 4.233,1.181l-11.544,54.74c-9.845,-2.046 -19.644,-3.07 -29.404,-3.07c-16.923,0 -31.436,4.543 -43.537,13.629c-12.102,9.086 -18.154,21.504 -18.154,37.253c0,9.894 3.276,18.375 9.828,25.442c6.551,7.067 14.467,10.6 23.748,10.6c13.024,0 27.359,-5.008 43.003,-15.022l-12.166,57.685l0.194,0.05Zm56.659,-198.068c0.865,-4.868 1.297,-9.113 1.297,-12.738c0,-11.712 -4.777,-21.05 -14.33,-28.016c-9.554,-6.966 -21.611,-10.449 -36.168,-10.449c-19.29,-0 -41.583,7.168 -66.877,21.504l-43.675,-47.551c40.944,-24.431 82.527,-36.647 124.746,-36.647c35.304,-0 64.693,8.026 88.168,24.078c23.475,16.052 35.213,40.433 35.213,73.144c0,8.681 -1.456,20.493 -4.368,35.435l-26.75,125.995l48.042,-0l-17.469,67.539l-132.39,0l5.46,-25.441c-0.103,0.071 -0.204,0.143 -0.304,0.212l38.046,-180.399c0.11,-0.501 0.222,-1.012 0.336,-1.535c0.239,-1.091 0.46,-2.156 0.661,-3.194l0.407,-1.925l-0.045,-0.012Z" style="fill-rule:nonzero;"/><path d="M870.145,466.906l-63.748,0l-35.898,-260.312l-28.031,0l12.54,-70.12l135.48,-0l-13.032,70.12l-31.227,0l9.59,105.936l-0.034,0.005l1.276,13.717l3.183,35.164l0.073,-0.16l9.828,105.65Zm5.988,-140.108l55.17,-120.204l-31.227,0l12.541,-70.12l136.461,-0l-12.539,70.12l-34.915,0l-114.37,239.769l-11.121,-119.565Z" style="fill-rule:nonzero;"/></g></g><path d="M1133.85,320.82l-0.288,0c-1.45,6.558 -2.174,13.316 -2.174,20.273c-0,18.683 4.799,33.938 14.398,45.763c9.598,11.826 22.547,17.74 38.846,17.74c24.087,0 43.556,-13.416 58.406,-40.248l64.653,31.602c-14.488,24.049 -32.688,41.887 -54.603,53.514c-21.913,11.628 -46.543,17.442 -73.889,17.442c-39.661,0 -71.264,-12.125 -94.807,-36.372c-23.544,-24.249 -35.316,-57.342 -35.316,-99.28c0,-34.185 6.656,-66.235 19.967,-96.147c13.311,-29.914 32.509,-53.814 57.591,-71.702c25.083,-17.888 54.104,-26.832 87.065,-26.832c24.449,-0 46.227,5.665 65.333,16.994c19.106,11.329 34.047,27.677 44.823,49.043c10.775,21.367 16.163,46.161 16.163,74.385c0,15.105 -1.358,29.714 -4.074,43.825l-187.384,0l10.429,-51.279l98.175,0c0.724,-6.161 1.087,-11.031 1.087,-14.608c-0,-17.094 -3.894,-30.609 -11.682,-40.547c-7.787,-9.937 -18.925,-14.907 -33.414,-14.907c-32.676,0 -55.361,22.214 -68.053,66.638l-0.123,-0.025l-0.341,1.677c-0.163,0.589 -0.324,1.178 -0.482,1.772l0.121,0l-10.427,51.279Z" style="fill-rule:nonzero;"/><path d="M2782.21,234.496l-0.076,-0.02c0.18,-0.133 0.362,-0.264 0.544,-0.397l0.012,-0.009l0.04,-0.029l0.024,-0.017l0.016,-0.012l0.027,-0.019l0.035,-0.026l0.015,-0.01l0.017,-0.013l0.056,-0.04l0.002,-0.001l0.001,-0l0.01,-0.008c0.045,-0.033 0.089,-0.066 0.134,-0.098l0.014,-0.01l13.324,-69.767l-0.872,-0.243c9.367,-6.898 18.055,-12.155 26.064,-15.77c14.23,-6.424 30.69,-9.637 49.378,-9.637c17.146,0 30.906,6.995 41.278,20.983c10.374,13.988 15.56,32.484 15.56,55.486c0,6.425 -0.515,13.108 -1.543,20.05c-1.029,6.943 -2.829,16.837 -5.401,29.686l-25.718,134.908l36.777,0l-13.117,69.32l-119.589,-0l39.606,-206.404c1.372,-8.496 2.057,-14.403 2.057,-17.718c0,-8.496 -1.671,-15.283 -5.014,-20.36c-3.344,-5.078 -8.359,-7.616 -15.046,-7.616c-9.39,-0 -21.954,5.681 -37.691,17.044l-0.053,0.038c-0.053,0.038 -0.106,0.076 -0.158,0.116l-0.003,0.001l-0.073,0.053l-0.015,0.01l-0.062,0.045l-0.016,0.012l-0.064,0.046l-0.012,0.009c-0.079,0.057 -0.158,0.115 -0.236,0.172l0.053,0.013l-0.285,0.232Zm-5.005,-75.833l-0.053,-0.014l-2.226,11.656l-2.45,12.517l0.072,-0.066l-13.575,71.082l0.228,0.064l-27.875,145.581l34.205,0l-13.116,69.32l-146.336,-0l13.117,-69.32l29.575,0l35.748,-187.131l-40.634,0l13.116,-70.252l123.447,0l-3.243,16.563Zm-16.747,93.436l-0.016,0.094l-1.083,0.881c0.027,-0.024 0.054,-0.048 0.08,-0.071l0.038,-0.034l0.013,-0.011l0.009,-0.008c0.038,-0.034 0.076,-0.068 0.116,-0.104l0.005,-0.005l0.01,-0.009c0.277,-0.245 0.553,-0.489 0.828,-0.733Zm-0.981,0.87l0.022,-0.019l0.116,-0.104l0.015,-0.014c0.085,-0.074 0.169,-0.149 0.254,-0.224l-0.008,0.046l-0.517,0.42l0.118,-0.105Z" style="fill-rule:nonzero;"/><g><g transform="matrix(0.880755,0,0,1,244.7,0)"><text x="2052.08px" y="459.558px" style="font-family:'Rockwell-BoldItalic', 'Rockwell', serif;font-weight:700;font-style:italic;font-size:610.762px;stroke:#000;stroke-width:0.05px;">o</text></g></g><g><g transform="matrix(0.987637,0,0,1,29.2924,0)"><text x="2369.36px" y="468.803px" style="font-family:'Rockwell-BoldItalic', 'Rockwell', serif;font-weight:700;font-style:italic;font-size:606.747px;stroke:#000;stroke-width:0.05px;">i</text></g></g><path d="M3193.6,142.797l0.281,-0l-13.982,69.61l-56.75,-0l-31.528,149.383c-1.462,10.061 -2.193,16.12 -2.193,18.173c-0,11.909 6.031,17.864 18.094,17.864c11.149,0 25.314,-5.236 42.494,-15.708l-15.627,74.23c-25.039,13.141 -49.531,19.712 -73.473,19.712c-19.191,0 -34.498,-5.904 -45.921,-17.71c-11.424,-11.808 -17.135,-27.772 -17.135,-47.895c0,-13.143 2.284,-31.211 6.854,-54.21l29.609,-143.839l-33.721,-0l14.255,-69.61l33.447,-0l0.015,-0.07l145.281,0.243l0,-0.173Zm-53.239,-15.842l-88.569,-0.147l6.656,-30.519l105.002,-82.547l-23.089,113.213Z" style="fill-rule:nonzero;"/><path d="M1873.27,158.712l-0.162,-0.03l-1.796,9.483l-3.061,14.779l0.213,0.257l-50.384,266.007l0.091,0.018l-14.538,75.346l42.269,-0l-12.875,65.392l-156.687,0l12.875,-65.392l36.439,-0l60.002,-316.409l-35.71,-0l12.39,-66.273l114.418,-0l-3.484,16.822Zm13.713,6.065c18.987,-17.604 38.818,-26.407 59.49,-26.407c17.815,0 33.362,5.621 46.642,16.862c13.28,11.242 23.321,26.343 30.123,45.306c6.802,18.964 10.202,40.077 10.202,63.34c0,31.671 -5.384,62.51 -16.154,92.519c-10.77,30.009 -26.277,54.641 -46.52,73.897c-20.244,19.257 -43.808,28.885 -70.692,28.885c-25.623,-0 -46.542,-10.736 -62.753,-32.205l12.943,-68.338c1.612,3.752 3.559,7.307 5.841,10.663c7.773,11.437 17.976,17.155 30.608,17.155c14.576,0 26.925,-6.207 37.047,-18.621c10.122,-12.414 17.692,-27.712 22.713,-45.892c5.021,-18.181 7.531,-35.873 7.531,-53.077c-0,-17.008 -3.684,-30.693 -11.053,-41.054c-7.369,-10.362 -17.127,-15.542 -29.273,-15.542c-13.28,0 -25.224,6.207 -35.831,18.621c-1.529,1.789 -3.008,3.638 -4.436,5.544l13.572,-71.656Z" style="fill-rule:nonzero;"/><g id="havenpointLogoWhite.svg"></g></svg>