<?xml version="1.0" encoding="UTF-8" standalone="no"?><!DOCTYPE svg PUBLIC "-//W3C//DTD SVG 1.1//EN" "http://www.w3.org/Graphics/SVG/1.1/DTD/svg11.dtd"><svg width="100%" height="100%" viewBox="0 0 3176 590" version="1.1" xmlns="http://www.w3.org/2000/svg" xmlns:xlink="http://www.w3.org/1999/xlink" xml:space="preserve" xmlns:serif="http://www.serif.com/" style="fill-rule:evenodd;clip-rule:evenodd;stroke-linecap:round;stroke-linejoin:round;stroke-miterlimit:1.5;"><g><g><path d="M201.953,174.851c15.019,-9.987 28.051,-17.282 39.095,-21.884c15.339,-6.393 30.117,-9.589 44.334,-9.589c19.829,-0 35.682,6.842 47.56,20.526c11.879,13.683 17.818,32.211 17.818,55.584c0,9.388 -0.935,18.777 -2.806,28.166c-1.87,9.389 -3.18,16.181 -3.928,20.376l-28.34,127.049l39.844,0l-13.749,66.821l-130.476,-0l42.37,-195.668c2.058,-9.389 3.087,-15.981 3.087,-19.776c-0,-8.191 -1.637,-14.733 -4.911,-19.627c-3.273,-4.894 -8.558,-7.341 -15.853,-7.341c-12.876,-0 -29.035,7.069 -48.473,21.205l14.428,-65.842Zm-34.252,85.366l-28.788,134.862l39.563,0l-14.31,66.821l-162.183,-0l14.31,-66.821l32.269,0l68.464,-317.323l-39.563,-0l14.871,-67.42l130.476,0l-39.283,177.389l0.051,-0.037l-14.91,68.046l-0.013,0.011l-0.384,1.801l-0.585,2.668l0.015,0.003Z" style="fill-rule:nonzero;"/><path d="M1513.61,228.419l-0.077,-0.019c0.181,-0.132 0.361,-0.263 0.543,-0.395l0.003,-0.003l0.008,-0.006l0.04,-0.029l0.024,-0.017l0.008,-0.006l0.009,-0.006l0.027,-0.02l0.035,-0.025l0.009,-0.007l0.005,-0.003l0.018,-0.013l0.054,-0.04l0.002,-0.001l0.001,-0.001l0.01,-0.007c0.045,-0.032 0.09,-0.065 0.135,-0.097l0.014,-0.01l13.276,-69.521l-0.869,-0.242c9.334,-6.874 17.991,-12.112 25.972,-15.714c14.181,-6.402 30.582,-9.603 49.205,-9.603c17.085,0 30.795,6.97 41.132,20.908c10.336,13.939 15.504,32.369 15.504,55.291c0,6.402 -0.512,13.061 -1.537,19.979c-1.026,6.918 -2.819,16.778 -5.382,29.581l-25.628,134.432l36.648,0l-13.07,69.075l-119.168,-0l39.467,-205.675c1.366,-8.467 2.05,-14.352 2.05,-17.656c-0,-8.466 -1.666,-15.229 -4.998,-20.289c-3.331,-5.059 -8.328,-7.588 -14.992,-7.588c-9.357,-0 -21.877,5.661 -37.557,16.983l-0.053,0.039c-0.053,0.038 -0.106,0.076 -0.159,0.114l-0.003,0.002l-0.072,0.053l-0.014,0.01l-0.062,0.045l-0.017,0.012l-0.064,0.046l-0.011,0.009c-0.079,0.057 -0.157,0.114 -0.236,0.171l0.053,0.013l-0.283,0.23Zm-4.988,-75.564l-0.053,-0.015l-2.218,11.616l-2.442,12.473l0.073,-0.066l-13.528,70.831l0.227,0.063l-27.776,145.068l34.085,0l-13.07,69.075l-145.82,-0l13.07,-69.075l29.471,0l35.623,-186.47l-40.492,0l13.07,-70.004l123.011,0l-3.231,16.504Zm-16.687,93.106l-0.017,0.094l-1.079,0.877c0.027,-0.023 0.053,-0.047 0.08,-0.07l0.037,-0.034l0.013,-0.011l0.01,-0.009c0.037,-0.033 0.075,-0.067 0.115,-0.102l0.006,-0.005l0.009,-0.009c0.276,-0.245 0.551,-0.488 0.826,-0.731Zm-0.979,0.867l0.023,-0.02l0.115,-0.102l0.015,-0.014c0.084,-0.074 0.168,-0.149 0.253,-0.224l-0.008,0.046l-0.515,0.418l0.117,-0.104Z" style="fill-rule:nonzero;"/><path d="M541.173,443.498c-21.383,12.267 -41.302,18.402 -59.753,18.402c-24.481,-0 -44.926,-8.099 -61.337,-24.295c-16.411,-16.197 -24.617,-37.273 -24.617,-63.228c0,-39.234 13.011,-68.559 39.033,-87.975c26.022,-19.416 60.611,-29.124 103.769,-29.124c13.963,0 26.158,1.459 36.585,4.376c1.494,0.418 2.9,0.811 4.218,1.177l-11.503,54.547c-9.81,-2.039 -19.575,-3.059 -29.3,-3.059c-16.864,-0 -31.325,4.527 -43.384,13.581c-12.059,9.054 -18.089,21.428 -18.089,37.121c0,9.859 3.264,18.31 9.793,25.352c6.528,7.042 14.416,10.563 23.664,10.563c12.978,-0 27.262,-4.99 42.851,-14.969l-12.123,57.481l0.193,0.05Zm56.459,-197.369c0.862,-4.85 1.293,-9.081 1.293,-12.693c0,-11.67 -4.76,-20.975 -14.28,-27.917c-9.52,-6.941 -21.534,-10.412 -36.04,-10.412c-19.222,0 -41.436,7.143 -66.641,21.428l-43.521,-47.383c40.8,-24.345 82.236,-36.518 124.306,-36.518c35.179,0 64.465,7.998 87.857,23.993c23.392,15.996 35.089,40.291 35.089,72.886c-0,8.651 -1.451,20.421 -4.353,35.31l-26.656,125.55l47.873,-0l-17.408,67.301l-131.922,0l5.44,-25.351c-0.102,0.071 -0.203,0.142 -0.302,0.211l37.911,-179.762c0.11,-0.499 0.221,-1.009 0.335,-1.53c0.238,-1.087 0.458,-2.148 0.659,-3.183l0.405,-1.918l-0.045,-0.012Z" style="fill-rule:nonzero;"/><path d="M855.697,461.9l-63.523,-0l-35.771,-259.393l-27.932,-0l12.496,-69.873l135.001,0l-12.986,69.873l-31.116,-0l9.556,105.562l-0.034,0.005l1.271,13.668l3.172,35.04l0.073,-0.159l9.793,105.277Zm5.967,-139.613l54.975,-119.78l-31.116,-0l12.496,-69.873l135.98,0l-12.495,69.873l-34.792,-0l-113.966,238.922l-11.082,-119.142Z" style="fill-rule:nonzero;"/></g></g><rect x="1034" y="558.861" width="53.752" height="171.125" style="fill:none;stroke:#000;stroke-width:0.05px;"/><path d="M1118.47,316.33l-0.287,-0c-1.444,6.535 -2.166,13.269 -2.166,20.201c-0,18.617 4.782,33.818 14.347,45.602c9.564,11.784 22.468,17.677 38.709,17.677c24.002,-0 43.402,-13.369 58.2,-40.106l64.425,31.49c-14.437,23.965 -32.573,41.74 -54.41,53.326c-21.836,11.587 -46.379,17.38 -73.629,17.38c-39.521,-0 -71.012,-12.082 -94.472,-36.244c-23.461,-24.163 -35.191,-57.139 -35.191,-98.929c0,-34.065 6.632,-66.001 19.896,-95.808c13.264,-29.808 32.394,-53.624 57.388,-71.449c24.994,-17.825 53.913,-26.737 86.758,-26.737c24.362,0 46.063,5.645 65.102,16.934c19.039,11.289 33.927,27.579 44.665,48.87c10.737,21.291 16.106,45.998 16.106,74.122c-0,15.052 -1.354,29.609 -4.06,43.671l-186.722,-0l10.392,-51.098l97.828,-0c0.722,-6.14 1.083,-10.992 1.083,-14.557c-0,-17.033 -3.88,-30.501 -11.64,-40.404c-7.76,-9.902 -18.859,-14.854 -33.296,-14.854c-32.561,0 -55.166,22.136 -67.813,66.403l-0.123,-0.025l-0.34,1.671c-0.162,0.587 -0.322,1.174 -0.48,1.766l0.121,-0l-10.391,51.098Z" style="fill-rule:nonzero;"/><path d="M2761.01,230.31l-0.076,-0.02c0.18,-0.132 0.361,-0.263 0.542,-0.395l0.004,-0.003l0.008,-0.006l0.04,-0.029l0.024,-0.017l0.008,-0.006l0.008,-0.006l0.027,-0.019l0.035,-0.026l0.009,-0.006l0.006,-0.004l0.017,-0.013l0.055,-0.04l0.002,-0.001l0.001,-0l0.01,-0.008c0.045,-0.032 0.089,-0.065 0.134,-0.097l0.014,-0.01l13.277,-69.521l-0.869,-0.242c9.334,-6.874 17.991,-12.112 25.972,-15.714c14.18,-6.402 30.582,-9.603 49.204,-9.603c17.085,0 30.796,6.97 41.132,20.909c10.337,13.938 15.505,32.369 15.505,55.29c-0,6.402 -0.513,13.061 -1.538,19.979c-1.025,6.918 -2.819,16.778 -5.382,29.581l-25.627,134.432l36.647,0l-13.07,69.075l-119.167,-0l39.466,-205.675c1.367,-8.466 2.05,-14.352 2.05,-17.656c0,-8.466 -1.665,-15.229 -4.997,-20.288c-3.332,-5.06 -8.329,-7.589 -14.992,-7.589c-9.357,-0 -21.877,5.661 -37.558,16.984l-0.053,0.038c-0.053,0.038 -0.106,0.076 -0.158,0.115l-0.003,0.001l-0.072,0.053l-0.015,0.01l-0.062,0.045l-0.016,0.012l-0.064,0.046l-0.012,0.009c-0.078,0.057 -0.157,0.114 -0.235,0.171l0.053,0.013l-0.284,0.231Zm-4.987,-75.565l-0.053,-0.014l-2.218,11.615l-2.442,12.473l0.072,-0.066l-13.527,70.831l0.227,0.064l-27.776,145.067l34.084,0l-13.07,69.075l-145.819,-0l13.07,-69.075l29.471,0l35.622,-186.47l-40.491,0l13.07,-70.004l123.011,0l-3.231,16.504Zm-16.688,93.106l-0.016,0.094l-1.079,0.878c0.026,-0.024 0.053,-0.048 0.079,-0.071l0.038,-0.034l0.013,-0.011l0.009,-0.008c0.038,-0.034 0.076,-0.068 0.116,-0.103l0.005,-0.005l0.01,-0.009c0.276,-0.244 0.551,-0.488 0.825,-0.731Zm-0.978,0.867l0.022,-0.019l0.116,-0.103l0.015,-0.014c0.084,-0.074 0.168,-0.149 0.253,-0.224l-0.008,0.046l-0.515,0.419l0.117,-0.105Z" style="fill-rule:nonzero;"/><g transform="matrix(0.880755,0,0,1,-262.794,0)"><text x="2607.14px" y="454.578px" style="font-family:'Rockwell-BoldItalic', 'Rockwell', serif;font-weight:700;font-style:italic;font-size:608.606px;stroke:#000;stroke-width:0.05px;stroke-linecap:butt;stroke-miterlimit:2;">o</text></g><g transform="matrix(0.987637,0,0,1,-62.8727,4.54747e-13)"><text x="2442.69px" y="463.79px" style="font-family:'Rockwell-BoldItalic', 'Rockwell', serif;font-weight:700;font-style:italic;font-size:604.605px;stroke:#000;stroke-width:0.05px;stroke-linecap:butt;stroke-miterlimit:2;">i</text></g><path d="M3170.95,138.935l0.28,0l-13.933,69.364l-56.55,0l-31.416,148.856c-1.457,10.026 -2.186,16.063 -2.186,18.109c0,11.867 6.01,17.801 18.031,17.801c11.109,0 25.224,-5.218 42.344,-15.653l-15.572,73.968c-24.951,13.095 -49.356,19.643 -73.214,19.643c-19.123,-0 -34.376,-5.883 -45.759,-17.648c-11.383,-11.766 -17.074,-27.674 -17.074,-47.726c-0,-13.096 2.276,-31.101 6.829,-54.018l29.505,-143.332l-33.602,0l14.205,-69.364l33.329,0l0.015,-0.07l144.768,0.242l-0,-0.172Zm-53.051,-15.786l-88.257,-0.147l6.633,-30.411l104.631,-82.255l-23.007,112.813Z" style="fill-rule:nonzero;"/><path d="M1855.28,154.794l-0.161,-0.03l-1.79,9.45l-3.05,14.726l0.212,0.256l-50.206,265.068l0.091,0.018l-14.487,75.08l42.12,0l-12.83,65.162l-156.133,0l12.829,-65.162l36.31,0l59.791,-315.292l-35.584,-0l12.346,-66.039l114.014,-0l-3.472,16.763Zm13.665,6.043c18.92,-17.541 38.681,-26.313 59.28,-26.313c17.752,0 33.244,5.601 46.477,16.802c13.233,11.202 23.239,26.25 30.017,45.146c6.778,18.897 10.166,39.936 10.166,63.117c0,31.559 -5.365,62.289 -16.097,92.192c-10.732,29.903 -26.184,54.448 -46.356,73.636c-20.172,19.189 -43.653,28.783 -70.442,28.783c-25.533,-0 -46.378,-10.698 -62.532,-32.091l12.898,-68.097c1.606,3.739 3.546,7.281 5.82,10.626c7.746,11.396 17.913,17.094 30.5,17.094c14.524,0 26.83,-6.185 36.916,-18.555c10.086,-12.37 17.63,-27.614 22.633,-45.73c5.003,-18.117 7.504,-35.747 7.504,-52.89c0,-16.948 -3.671,-30.585 -11.014,-40.909c-7.343,-10.325 -17.066,-15.487 -29.169,-15.487c-13.233,-0 -25.135,6.185 -35.705,18.555c-1.523,1.783 -2.997,3.625 -4.42,5.525l13.524,-71.404Z" style="fill-rule:nonzero;"/></svg>