<?xml version="1.0" encoding="UTF-8" standalone="no"?><!DOCTYPE svg PUBLIC "-//W3C//DTD SVG 1.1//EN" "http://www.w3.org/Graphics/SVG/1.1/DTD/svg11.dtd"><svg width="100%" height="100%" viewBox="0 0 4063 892" version="1.1" xmlns="http://www.w3.org/2000/svg" xmlns:xlink="http://www.w3.org/1999/xlink" xml:space="preserve" xmlns:serif="http://www.serif.com/" style="fill-rule:evenodd;clip-rule:evenodd;stroke-linejoin:round;stroke-miterlimit:2;"><g id="ears"><path d="M2558.15,494.507c0,22.636 -2.234,44.529 -6.701,65.676l-332.849,0c-2.383,9.829 -3.575,19.956 -3.575,30.381c0,27.998 7.893,50.858 23.68,68.58c15.786,17.722 37.082,26.583 63.889,26.583c39.614,0 71.633,-20.105 96.057,-60.314l106.333,47.358c-23.828,36.04 -53.762,62.772 -89.802,80.196c-36.04,17.425 -76.548,26.137 -121.524,26.137c-65.229,-0 -117.204,-18.169 -155.925,-54.507c-38.721,-36.338 -58.081,-85.93 -58.081,-148.777c-0,-51.23 10.946,-99.259 32.838,-144.085c21.892,-44.827 53.464,-80.644 94.717,-107.45c41.252,-26.807 88.983,-40.21 143.192,-40.21c40.21,-0 76.026,8.488 107.45,25.466c31.423,16.977 55.996,41.476 73.718,73.495c17.722,32.019 26.583,69.176 26.583,111.471Zm-134.48,-33.062c0,-25.615 -6.403,-45.869 -19.211,-60.761c-12.808,-14.893 -31.126,-22.339 -54.954,-22.339c-55.102,-0 -92.929,34.997 -113.481,104.992l185.859,0c1.192,-9.233 1.787,-16.53 1.787,-21.892Z" style="fill-rule:nonzero;"/><path d="M3087.58,427.49c0,12.808 -2.382,30.232 -7.148,52.273l-43.784,185.859l78.633,0l-28.594,99.632l-216.687,-0l8.935,-37.529c-46.167,29.189 -88.461,43.784 -126.884,43.784c-40.21,-0 -73.793,-11.989 -100.749,-35.966c-26.955,-23.977 -40.433,-55.177 -40.433,-93.6c0,-58.081 21.371,-101.493 64.113,-130.235c42.741,-28.743 99.556,-43.114 170.445,-43.114c22.935,-0 42.965,2.159 60.092,6.478c17.126,4.319 27.179,6.776 30.157,7.372c1.192,-4.766 3.053,-12.361 5.585,-22.786c2.532,-10.425 3.798,-19.211 3.798,-26.36c-0,-17.275 -7.819,-31.051 -23.456,-41.327c-15.638,-10.276 -35.37,-15.413 -59.198,-15.413c-31.573,-0 -68.059,10.573 -109.461,31.721l-71.484,-70.144c67.016,-36.04 135.076,-54.06 204.177,-54.06c57.783,-0 105.886,11.839 144.309,35.518c38.423,23.68 57.634,59.645 57.634,107.897Zm-288.171,253.77c29.19,-0 62.4,-13.85 99.631,-41.551l17.425,-76.845c-23.828,-6.553 -47.508,-9.829 -71.038,-9.829c-27.7,-0 -51.454,6.701 -71.261,20.105c-19.807,13.403 -29.711,31.721 -29.711,54.953c0,14.595 5.362,27.105 16.084,37.529c10.723,10.425 23.68,15.638 38.87,15.638Z" style="fill-rule:nonzero;"/><path d="M3607.18,295.691l-28.147,125.544c-15.787,-3.574 -30.53,-5.361 -44.231,-5.361c-78.038,-0 -127.928,50.933 -149.671,152.798l-22.339,96.95l73.272,0l-22.786,99.632l-273.428,-0l22.786,-99.632l56.741,0l62.102,-268.959l-63.889,-0l22.785,-100.972l191.221,-0l-32.168,136.714l1.787,1.787c27.7,-53.316 53.911,-90.473 78.633,-111.471c24.722,-20.999 53.762,-31.498 87.122,-31.498c10.424,0 23.828,1.489 40.21,4.468Z" style="fill-rule:nonzero;"/><path d="M3948.52,320.71l5.362,-25.019l101.865,-0l-32.168,137.607l-96.057,0c-5.361,-18.467 -15.563,-32.242 -30.604,-41.327c-15.042,-9.084 -33.434,-13.626 -55.177,-13.626c-17.871,-0 -34.402,3.35 -49.593,10.052c-15.19,6.702 -22.785,16.754 -22.785,30.158c-0,11.02 6.999,20.179 20.998,27.476c13.999,7.298 39.019,15.116 75.059,23.456c51.826,13.106 90.845,30.604 117.055,52.497c26.211,21.892 39.317,52.943 39.317,93.153c-0,50.039 -20.254,88.313 -60.762,114.821c-40.508,26.509 -93.525,39.764 -159.053,39.764c-54.209,-0 -97.993,-10.276 -131.352,-30.828l-5.808,26.36l-102.312,-0l37.529,-161.734l92.483,0c11.021,53.018 47.507,79.527 109.46,79.527c61.06,-0 91.59,-15.637 91.59,-46.912c-0,-12.807 -7.446,-23.009 -22.339,-30.604c-14.893,-7.595 -43.04,-16.307 -84.441,-26.137c-51.23,-12.807 -88.462,-30.008 -111.694,-51.602c-23.233,-21.595 -34.849,-51.901 -34.849,-90.92c0,-44.677 18.169,-80.122 54.507,-106.333c36.338,-26.21 84.292,-39.316 143.862,-39.316c43.487,0 80.122,9.829 109.907,29.487Z" style="fill-rule:nonzero;"/></g><g><path d="M262.712,862.658c399.081,-1.31 724.966,-187.731 727.317,-418.53c2.346,-230.794 -319.716,-420.354 -718.729,-425.526c101.043,106.002 182.391,259.186 180.726,422.922c-1.668,163.74 -86.126,316.122 -189.314,421.134Z"/><g><path d="M387.604,799.891c290.61,1.407 528.183,-158.435 530.202,-356.718c2.019,-198.286 -232.284,-360.409 -522.891,-361.816c71.737,90.168 129.4,220.515 127.982,359.903c-1.419,139.39 -61.726,269.164 -135.293,358.631Z" style="fill:#02dcfd;"/></g></g><g><path d="M38.292,777.369c276.2,-1.044 501.748,-149.793 503.373,-333.95c1.622,-184.158 -221.272,-335.405 -497.429,-339.533c69.931,84.579 126.231,206.808 125.077,337.455c-1.15,130.652 -59.606,252.236 -131.022,336.028l0.001,0Z"/><g><path d="M124.73,727.29c201.128,1.123 365.554,-126.419 366.949,-284.632c1.395,-158.216 -160.762,-287.574 -361.89,-288.696c49.651,71.946 89.556,175.952 88.574,287.172c-0.982,111.218 -42.72,214.767 -93.633,286.156Z" style="fill:#02dcfd;"/></g></g><path d="M1821.4,779.104l-170.536,-0l-69.275,-379.123l-160.249,340.883l-41.815,-230.594l187.579,-401.874l140.44,0l65.297,381.529l48.559,289.179Zm-17.67,-268.772l122.974,-266.535l-83.759,0l30.859,-135.401l313.626,0l-32.118,142.329l-72.424,-0l-239.147,497.877l-40.011,-238.27Zm-402.827,268.772l2.69,-0.488l-0.23,0.488l-2.46,-0Zm0,-0l-182.063,-0l-91.317,-528.379l-79.981,-0l32.118,-142.329l199.621,0l26.425,145.724l53.573,299.525l0.534,-1.142l41.09,226.601Zm-94.251,-670.708l106.788,0l-29.6,135.401l-52.635,0l-24.553,-135.401Z"/></svg>