<?xml version="1.0" encoding="UTF-8" standalone="no"?><!DOCTYPE svg PUBLIC "-//W3C//DTD SVG 1.1//EN" "http://www.w3.org/Graphics/SVG/1.1/DTD/svg11.dtd"><svg width="100%" height="100%" viewBox="0 0 106 77" version="1.1" xmlns="http://www.w3.org/2000/svg" xmlns:xlink="http://www.w3.org/1999/xlink" xml:space="preserve" xmlns:serif="http://www.serif.com/" style="fill-rule:evenodd;clip-rule:evenodd;stroke-linejoin:round;stroke-miterlimit:2;"><g><path d="M36.814,45.592c-0,-10.782 15.087,-19.536 33.67,-19.536c18.584,-0 33.671,8.754 33.671,19.536c-0,6.372 -5.356,12.343 -14.35,15.999l4.249,13.305l-14.846,-10.436c-2.845,0.443 -5.778,0.668 -8.724,0.668c-18.583,-0 -33.67,-8.754 -33.67,-19.536Z" style="fill:#00dcfd;"/><path d="M98.372,25.565c0,-13.555 -21.753,-24.561 -48.547,-24.561c-26.794,0 -48.547,11.006 -48.547,24.561c0,8.011 7.722,15.518 20.69,20.115l-6.126,16.726l21.404,-13.119c4.103,0.556 8.332,0.838 12.579,0.838c26.794,0 48.547,-11.005 48.547,-24.56Z" style="fill:#2c363f;"/></g></svg>