<?xml version="1.0" encoding="UTF-8" standalone="no"?><!DOCTYPE svg PUBLIC "-//W3C//DTD SVG 1.1//EN" "http://www.w3.org/Graphics/SVG/1.1/DTD/svg11.dtd"><svg width="100%" height="100%" viewBox="0 0 2570 597" version="1.1" xmlns="http://www.w3.org/2000/svg" xmlns:xlink="http://www.w3.org/1999/xlink" xml:space="preserve" xmlns:serif="http://www.serif.com/" style="fill-rule:evenodd;clip-rule:evenodd;stroke-linejoin:round;stroke-miterlimit:2;"><g><g><path d="M224.47,238.587c15.019,-9.987 28.051,-17.282 39.095,-21.885c15.339,-6.392 30.117,-9.589 44.334,-9.589c19.829,0 35.682,6.842 47.561,20.526c11.878,13.684 17.817,32.212 17.817,55.584c0,9.389 -0.935,18.778 -2.806,28.167c-1.87,9.388 -3.18,16.18 -3.928,20.375l-28.34,127.05l39.844,-0l-13.749,66.82l-130.475,0l42.369,-195.667c2.058,-9.389 3.087,-15.981 3.087,-19.777c-0,-8.19 -1.637,-14.732 -4.911,-19.627c-3.273,-4.894 -8.558,-7.341 -15.853,-7.341c-12.876,0 -29.034,7.069 -48.473,21.205l14.428,-65.841Zm-34.252,85.366l-28.788,134.862l39.563,-0l-14.31,66.82l-162.183,0l14.311,-66.82l32.268,-0l68.464,-317.324l-39.563,0l14.871,-67.42l130.476,0l-39.283,177.39l0.051,-0.038l-14.91,68.046l-0.013,0.011l-0.384,1.802l-0.585,2.667l0.015,0.004Z" style="fill-rule:nonzero;"/><path d="M1232.03,292.155l-0.077,-0.019c0.181,-0.133 0.362,-0.264 0.543,-0.396l0.004,-0.003l0.008,-0.005l0.04,-0.029l0.024,-0.018l0.007,-0.005l0.009,-0.006l0.027,-0.02l0.035,-0.026l0.009,-0.006l0.005,-0.004l0.018,-0.013l0.055,-0.039l0.002,-0.002l0,-0l0.01,-0.008c0.045,-0.032 0.09,-0.064 0.135,-0.097l0.014,-0.01l13.277,-69.521l-0.869,-0.242c9.334,-6.873 17.991,-12.111 25.971,-15.714c14.181,-6.402 30.582,-9.602 49.205,-9.602c17.085,-0 30.796,6.969 41.132,20.908c10.336,13.939 15.504,32.369 15.504,55.29c0,6.402 -0.512,13.062 -1.537,19.979c-1.025,6.918 -2.819,16.779 -5.382,29.582l-25.627,134.432l36.647,-0l-13.07,69.074l-119.167,0l39.466,-205.675c1.367,-8.466 2.05,-14.351 2.05,-17.655c-0,-8.467 -1.666,-15.23 -4.997,-20.289c-3.332,-5.059 -8.329,-7.589 -14.992,-7.589c-9.357,-0 -21.877,5.662 -37.558,16.984l-0.053,0.038c-0.053,0.038 -0.106,0.077 -0.159,0.115l-0.002,0.002l-0.073,0.052l-0.014,0.01l-0.062,0.046l-0.016,0.011l-0.064,0.047l-0.012,0.008c-0.078,0.057 -0.157,0.114 -0.236,0.171l0.053,0.013l-0.283,0.231Zm-4.988,-75.564l-0.052,-0.015l-2.219,11.616l-2.442,12.472l0.073,-0.066l-13.527,70.832l0.226,0.063l-27.775,145.068l34.084,-0l-13.07,69.074l-145.82,0l13.07,-69.074l29.472,-0l35.622,-186.471l-40.491,0l13.069,-70.003l123.012,-0l-3.232,16.504Zm-16.687,93.106l-0.017,0.094l-1.079,0.877c0.027,-0.024 0.053,-0.047 0.08,-0.071l0.038,-0.033l0.013,-0.012l0.009,-0.008c0.038,-0.034 0.076,-0.068 0.115,-0.103l0.006,-0.005l0.01,-0.008c0.275,-0.245 0.55,-0.489 0.825,-0.731Zm-0.978,0.867l0.022,-0.02l0.115,-0.103l0.016,-0.013c0.083,-0.075 0.168,-0.149 0.252,-0.224l-0.008,0.045l-0.515,0.419l0.118,-0.104Z" style="fill-rule:nonzero;"/><path d="M563.69,507.234c-21.383,12.267 -41.302,18.401 -59.753,18.401c-24.481,0 -44.926,-8.098 -61.337,-24.295c-16.411,-16.197 -24.617,-37.272 -24.617,-63.227c0,-39.234 13.011,-68.56 39.033,-87.975c26.022,-19.416 60.611,-29.124 103.769,-29.124c13.963,-0 26.158,1.458 36.585,4.376c1.494,0.418 2.9,0.81 4.218,1.177l-11.503,54.547c-9.809,-2.04 -19.575,-3.06 -29.3,-3.06c-16.864,0 -31.325,4.527 -43.384,13.581c-12.059,9.054 -18.088,21.428 -18.088,37.122c-0,9.859 3.264,18.309 9.792,25.351c6.528,7.042 14.416,10.563 23.664,10.563c12.978,0 27.262,-4.99 42.851,-14.969l-12.123,57.482l0.193,0.05Zm56.459,-197.369c0.862,-4.851 1.293,-9.082 1.293,-12.694c0,-11.669 -4.76,-20.975 -14.28,-27.916c-9.52,-6.942 -21.534,-10.412 -36.04,-10.412c-19.222,-0 -41.436,7.142 -66.641,21.428l-43.521,-47.383c40.801,-24.346 82.236,-36.518 124.306,-36.518c35.179,-0 64.465,7.997 87.857,23.993c23.392,15.995 35.089,40.29 35.089,72.885c-0,8.652 -1.451,20.422 -4.352,35.311l-26.657,125.549l47.873,0l-17.408,67.302l-131.922,-0l5.44,-25.351c-0.101,0.071 -0.203,0.141 -0.301,0.211l37.91,-179.763c0.11,-0.499 0.221,-1.009 0.335,-1.529c0.238,-1.088 0.458,-2.149 0.659,-3.183l0.405,-1.919l-0.045,-0.011Z" style="fill-rule:nonzero;"/><path d="M878.214,525.635l-63.523,0l-35.771,-259.393l-27.932,-0l12.496,-69.872l135.001,-0l-12.986,69.872l-31.116,-0l9.556,105.563l-0.034,0.004l1.271,13.669l3.172,35.04l0.073,-0.159l9.793,105.276Zm5.967,-139.613l54.975,-119.78l-31.116,-0l12.496,-69.872l135.98,-0l-12.495,69.872l-34.792,-0l-113.965,238.923l-11.083,-119.143Z" style="fill-rule:nonzero;"/></g></g><g><path d="M1604.98,373.313l0.162,0.024l-15.106,81.582l43.575,0l-12.69,70.716l-169.272,0l12.69,-70.716l33.998,0l57.222,-310.431l-40.223,-0l13.408,-70.417l131.468,0l-55.232,299.242Zm80.988,-299.237c40.525,0.246 72.115,11.581 94.768,34.005c22.905,22.673 34.358,55.884 34.358,99.632c-0,52.737 -13.887,91.391 -41.66,115.962c-27.773,24.571 -65.363,36.856 -112.768,36.856l-27.571,0l12.997,-70.416l5.236,-0c20.591,-0 37.59,-7.591 50.997,-22.773c13.408,-15.182 20.112,-35.058 20.112,-59.629c-0,-21.575 -4.19,-37.506 -12.57,-47.794c-8.205,-10.073 -20.505,-15.215 -36.897,-15.424l12.998,-70.419Z" style="fill:#00dcfd;fill-rule:nonzero;"/><g><g><path d="M1975.7,510.25c-21.663,12.378 -41.842,18.568 -60.536,18.568c-24.801,-0 -45.514,-8.171 -62.14,-24.515c-16.626,-16.343 -24.939,-37.61 -24.939,-63.801c0,-39.589 13.182,-69.18 39.544,-88.772c26.362,-19.592 61.405,-29.388 105.128,-29.388c14.146,-0 26.501,1.472 37.064,4.415c1.514,0.422 2.937,0.818 4.274,1.188l-11.655,55.042c-9.937,-2.059 -19.831,-3.088 -29.683,-3.088c-17.084,-0 -31.736,4.568 -43.953,13.704c-12.217,9.136 -18.325,21.622 -18.325,37.459c0,9.948 3.307,18.475 9.921,25.58c6.613,7.106 14.604,10.659 23.974,10.659c13.148,0 27.618,-5.034 43.412,-15.105l-12.281,58.004l0.195,0.05Zm57.198,-199.158c0.874,-4.894 1.311,-9.165 1.311,-12.81c-0,-11.774 -4.823,-21.165 -14.467,-28.169c-9.645,-7.005 -21.816,-10.506 -36.513,-10.506c-19.473,-0 -41.978,7.207 -67.514,21.622l-44.091,-47.812c41.335,-24.567 83.313,-36.849 125.934,-36.849c35.641,-0 65.309,8.07 89.008,24.21c23.699,16.14 35.548,40.656 35.548,73.546c-0,8.73 -1.47,20.607 -4.409,35.631l-27.005,126.687l48.499,0l-17.636,67.913l-133.65,-0l5.511,-25.581c-0.102,0.071 -0.204,0.143 -0.304,0.213l38.407,-181.393c0.11,-0.504 0.224,-1.018 0.339,-1.543c0.241,-1.098 0.463,-2.168 0.668,-3.212l0.409,-1.936l-0.045,-0.011Z" style="fill:#00dcfd;fill-rule:nonzero;"/></g></g><path d="M2265.53,431.785l0.651,-0.852l-46.256,-184.7l-33.455,0l15.419,-48.65l159.713,-0l-15.418,48.65l-36.365,0l17.673,101.919l14.656,89.725l-69.276,88.635l-80.001,0l72.837,-94.636l-0.178,-0.091Zm75.812,-96.676l69.716,-88.876l-36.946,0l14.836,-48.65l159.714,-0l-14.837,48.65l-41.892,0l-136.567,174.732l-14.024,-85.856Z" style="fill:#00dcfd;fill-rule:nonzero;"/></g></svg>