<?xml version="1.0" encoding="UTF-8" standalone="no"?><!DOCTYPE svg PUBLIC "-//W3C//DTD SVG 1.1//EN" "http://www.w3.org/Graphics/SVG/1.1/DTD/svg11.dtd"><svg width="100%" height="100%" viewBox="0 0 2530 705" version="1.1" xmlns="http://www.w3.org/2000/svg" xmlns:xlink="http://www.w3.org/1999/xlink" xml:space="preserve" xmlns:serif="http://www.serif.com/" style="fill-rule:evenodd;clip-rule:evenodd;stroke-linejoin:round;stroke-miterlimit:2;"><g><g><path d="M300.049,242.758c15.02,-9.988 28.052,-17.283 39.096,-21.885c15.339,-6.393 30.117,-9.589 44.334,-9.589c19.828,0 35.682,6.842 47.56,20.526c11.878,13.684 17.818,32.212 17.818,55.584c-0,9.389 -0.936,18.778 -2.806,28.166c-1.871,9.389 -3.18,16.181 -3.929,20.376l-28.339,127.049l39.844,0l-13.749,66.821l-130.476,-0l42.37,-195.668c2.057,-9.389 3.086,-15.981 3.086,-19.776c0,-8.19 -1.637,-14.733 -4.91,-19.627c-3.274,-4.894 -8.558,-7.341 -15.854,-7.341c-12.876,-0 -29.034,7.069 -48.472,21.205l14.427,-65.841Zm-34.252,85.366l-28.788,134.861l39.564,0l-14.311,66.821l-162.182,-0l14.31,-66.821l32.268,0l68.465,-317.323l-39.564,0l14.872,-67.42l130.475,0l-39.283,177.39l0.052,-0.038l-14.91,68.046l-0.013,0.011l-0.385,1.802l-0.584,2.667l0.014,0.004Z" style="fill-rule:nonzero;"/><path d="M1307.61,296.326l-0.076,-0.02c0.181,-0.132 0.361,-0.263 0.543,-0.395l0.003,-0.003l0.008,-0.005l0.04,-0.029l0.024,-0.018l0.008,-0.006l0.008,-0.006l0.027,-0.019l0.035,-0.026l0.01,-0.006l0.005,-0.004l0.018,-0.013l0.054,-0.04l0.002,-0.001l0.001,-0l0.01,-0.008c0.045,-0.032 0.089,-0.065 0.134,-0.097l0.014,-0.01l13.277,-69.521l-0.869,-0.242c9.334,-6.873 17.991,-12.111 25.972,-15.714c14.18,-6.402 30.582,-9.603 49.204,-9.603c17.085,0 30.796,6.97 41.132,20.909c10.337,13.938 15.505,32.369 15.505,55.29c-0,6.402 -0.513,13.061 -1.538,19.979c-1.025,6.918 -2.819,16.778 -5.381,29.581l-25.628,134.432l36.647,0l-13.07,69.075l-119.167,-0l39.466,-205.675c1.367,-8.466 2.051,-14.352 2.051,-17.656c-0,-8.466 -1.666,-15.229 -4.998,-20.288c-3.331,-5.06 -8.329,-7.589 -14.992,-7.589c-9.357,-0 -21.877,5.662 -37.558,16.984l-0.053,0.038c-0.053,0.038 -0.105,0.076 -0.158,0.115l-0.003,0.001l-0.072,0.053l-0.015,0.01l-0.062,0.045l-0.016,0.012l-0.064,0.047l-0.011,0.008c-0.079,0.057 -0.157,0.114 -0.236,0.171l0.053,0.013l-0.284,0.231Zm-4.987,-75.565l-0.053,-0.014l-2.218,11.615l-2.442,12.473l0.072,-0.066l-13.527,70.831l0.227,0.064l-27.776,145.067l34.084,0l-13.07,69.075l-145.819,-0l13.07,-69.075l29.471,0l35.622,-186.47l-40.491,0l13.07,-70.003l123.011,-0l-3.231,16.503Zm-16.687,93.106l-0.017,0.094l-1.079,0.878c0.026,-0.024 0.053,-0.048 0.079,-0.071l0.038,-0.034l0.013,-0.011l0.009,-0.008c0.038,-0.034 0.076,-0.068 0.116,-0.103l0.006,-0.005l0.009,-0.008c0.276,-0.245 0.551,-0.489 0.826,-0.732Zm-0.979,0.867l0.022,-0.019l0.116,-0.103l0.015,-0.013c0.084,-0.075 0.168,-0.15 0.253,-0.225l-0.008,0.046l-0.515,0.419l0.117,-0.105Z" style="fill-rule:nonzero;"/><path d="M639.27,511.405c-21.383,12.267 -41.302,18.401 -59.754,18.401c-24.48,-0 -44.926,-8.098 -61.337,-24.295c-16.411,-16.197 -24.616,-37.273 -24.616,-63.227c-0,-39.235 13.011,-68.56 39.032,-87.976c26.022,-19.416 60.612,-29.123 103.77,-29.123c13.963,-0 26.158,1.458 36.584,4.376c1.495,0.418 2.9,0.81 4.219,1.177l-11.504,54.547c-9.809,-2.04 -19.575,-3.06 -29.299,-3.06c-16.864,0 -31.326,4.527 -43.385,13.581c-12.059,9.054 -18.088,21.428 -18.088,37.122c0,9.859 3.264,18.309 9.792,25.351c6.528,7.042 14.416,10.563 23.665,10.563c12.978,0 27.261,-4.99 42.85,-14.969l-12.122,57.481l0.193,0.051Zm56.458,-197.369c0.863,-4.851 1.294,-9.082 1.294,-12.694c-0,-11.669 -4.76,-20.975 -14.28,-27.916c-9.521,-6.942 -21.534,-10.413 -36.041,-10.413c-19.222,0 -41.435,7.143 -66.641,21.428l-43.521,-47.383c40.801,-24.345 82.236,-36.518 124.306,-36.518c35.179,0 64.465,7.998 87.858,23.994c23.392,15.995 35.088,40.29 35.088,72.885c0,8.651 -1.451,20.422 -4.352,35.311l-26.656,125.549l47.872,-0l-17.408,67.302l-131.922,-0l5.44,-25.352c-0.101,0.071 -0.202,0.142 -0.301,0.211l37.911,-179.762c0.109,-0.499 0.221,-1.009 0.335,-1.53c0.238,-1.087 0.457,-2.148 0.659,-3.183l0.404,-1.918l-0.045,-0.011Z" style="fill-rule:nonzero;"/><path d="M953.794,529.806l-63.523,-0l-35.772,-259.393l-27.931,-0l12.495,-69.873l135.001,0l-12.985,69.873l-31.117,-0l9.556,105.562l-0.033,0.005l1.271,13.668l3.172,35.04l0.073,-0.158l9.793,105.276Zm5.966,-139.613l54.976,-119.78l-31.116,-0l12.495,-69.873l135.981,0l-12.496,69.873l-34.791,-0l-113.966,238.922l-11.083,-119.142Z" style="fill-rule:nonzero;"/></g></g><g transform="matrix(0.792283,0,0,1,-199.518,2.27374e-13)"><text x="2237.91px" y="533.317px" style="font-family:'Rockwell-BoldItalic', 'Rockwell', serif;font-weight:700;font-style:italic;font-size:618.443px;fill:#00dcfd;">P<tspan x="2648.07px " y="533.317px ">a</tspan>y</text></g></svg>