<?xml version="1.0" standalone="no"?>
<!DOCTYPE svg PUBLIC "-//W3C//DTD SVG 20010904//EN"
 "http://www.w3.org/TR/2001/REC-SVG-20010904/DTD/svg10.dtd">
<svg version="1.0" xmlns="http://www.w3.org/2000/svg"
 width="256.000000pt" height="256.000000pt" viewBox="0 0 256.000000 256.000000"
 preserveAspectRatio="xMidYMid meet">

<g transform="translate(0.000000,256.000000) scale(0.100000,-0.100000)"
fill="#000000" stroke="none">
<path d="M905 2420 c-363 -39 -661 -301 -746 -658 -18 -73 -20 -109 -17 -227
4 -124 8 -151 37 -235 77 -228 234 -406 446 -506 118 -55 196 -74 331 -81 178
-9 356 38 494 130 l65 43 295 -292 c318 -315 324 -319 394 -290 44 18 71 71
60 120 -5 23 -78 103 -298 326 l-292 295 43 65 c121 180 164 452 108 670 -24
90 -93 233 -149 307 -177 233 -478 363 -771 333z m293 -243 c166 -58 292 -168
367 -321 97 -195 97 -376 2 -576 -56 -120 -167 -230 -287 -288 -112 -53 -174
-67 -295 -66 -339 1 -614 263 -632 604 -17 309 179 579 479 660 104 29 264 23
366 -13z"/>
</g>
</svg>
