<?xml version="1.0" encoding="UTF-8" standalone="no"?><!DOCTYPE svg PUBLIC "-//W3C//DTD SVG 1.1//EN" "http://www.w3.org/Graphics/SVG/1.1/DTD/svg11.dtd"><svg width="100%" height="100%" viewBox="0 0 1030 921" version="1.1" xmlns="http://www.w3.org/2000/svg" xmlns:xlink="http://www.w3.org/1999/xlink" xml:space="preserve" xmlns:serif="http://www.serif.com/" style="fill-rule:evenodd;clip-rule:evenodd;stroke-linejoin:round;stroke-miterlimit:2;"><g><path d="M248.162,908.3c426.605,-1.4 774.967,-200.679 777.48,-447.396c2.508,-246.712 -341.767,-449.346 -768.3,-454.875c108.012,113.313 194.971,277.063 193.191,452.092c-1.783,175.033 -92.066,337.925 -202.371,450.179Z" style="fill:#fff;"/><g><path d="M381.667,841.204c310.654,1.504 564.612,-169.362 566.771,-381.321c2.158,-211.962 -248.305,-385.266 -558.955,-386.77c76.684,96.387 138.325,235.724 136.809,384.725c-1.517,149.004 -65.984,287.729 -144.625,383.366Z" style="fill:#00dcfd;"/></g></g><g><path d="M8.263,817.129c295.25,-1.116 536.354,-160.125 538.091,-356.983c1.734,-196.859 -236.533,-358.538 -531.737,-362.95c74.754,90.412 134.937,221.071 133.704,360.729c-1.229,139.663 -63.717,269.633 -140.059,359.204Z" style="fill:#fff;"/><g><path d="M100.663,763.596c215,1.2 390.766,-135.138 392.258,-304.263c1.491,-169.129 -171.85,-307.408 -386.85,-308.608c53.075,76.908 95.733,188.088 94.683,306.979c-1.05,118.888 -45.666,229.579 -100.091,305.892Z" style="fill:#00dcfd;"/></g></g></svg>